<svg width="24" height="24" viewBox="0 0 24 24" fill="none" xmlns="http://www.w3.org/2000/svg">
  <path d="M15.684 17.3519C16.93 17.0752 18.0115 16.4269 18.8499 15.493C19.6883 14.559 20.2478 13.3801 20.4599 12.1109C20.6719 10.8417 20.5276 9.53961 20.0439 8.35148C19.5603 7.16335 18.7574 6.13717 17.727 5.38986C16.6966 4.64255 15.4809 4.20281 14.2164 4.12381C12.952 4.0448 11.6908 4.33019 10.5814 4.94419C9.47196 5.55819 8.56155 6.47335 7.95316 7.58609C7.34477 8.69883 7.06576 9.96186 7.15099 11.2259C7.21599 12.1899 7.49499 13.1319 7.96599 13.9829C8.43699 14.8339 9.08899 15.5699 9.86998 16.1489C9.3164 16.6077 8.66847 16.938 7.96999 17.1109C7.24399 17.2649 6.21099 17.1929 5.78099 17.1709C5.36099 17.1469 4.99999 17.5039 4.99999 17.9249V19.7089C4.99999 20.1109 5.33799 20.4529 5.74099 20.4549C6.14399 20.4569 7.79399 20.4549 8.29399 20.4549C10.313 20.4549 12.256 19.649 13.66 18.1659C14.3352 17.8897 14.9763 17.5366 15.575 17.1129C15.612 17.1939 15.649 17.2729 15.684 17.3519Z" stroke="white" stroke-width="2" stroke-linecap="round" stroke-linejoin="round"/>
  <path d="M13 12C13 13.1046 12.1046 14 11 14C9.89543 14 9 13.1046 9 12C9 10.8954 9.89543 10 11 10C12.1046 10 13 10.8954 13 12Z" stroke="white" stroke-width="2" stroke-linecap="round" stroke-linejoin="round"/>
  <path d="M18 9C18.5523 9 19 8.55228 19 8C19 7.44772 18.5523 7 18 7C17.4477 7 17 7.44772 17 8C17 8.55228 17.4477 9 18 9Z" stroke="white" stroke-width="2" stroke-linecap="round" stroke-linejoin="round"/>
</svg> 