<svg width="600" height="400" viewBox="0 0 600 400" fill="none" xmlns="http://www.w3.org/2000/svg">
  <rect width="600" height="400" rx="10" fill="#1E293B" />
  <rect x="20" y="20" width="560" height="40" rx="4" fill="#334155" />
  <rect x="40" y="34" width="100" height="12" rx="2" fill="#4A6FA5" />
  <rect x="160" y="34" width="80" height="12" rx="2" fill="#64748B" />
  <rect x="260" y="34" width="80" height="12" rx="2" fill="#64748B" />
  <rect x="360" y="34" width="80" height="12" rx="2" fill="#64748B" />
  <rect x="460" y="34" width="80" height="12" rx="2" fill="#64748B" />
  
  <rect x="20" y="80" width="220" height="300" rx="4" fill="#334155" />
  <rect x="260" y="80" width="320" height="300" rx="4" fill="#334155" />
  
  <rect x="40" y="100" width="180" height="20" rx="2" fill="#4A6FA5" />
  <rect x="40" y="140" width="180" height="1" fill="#64748B" />
  <rect x="40" y="160" width="180" height="1" fill="#64748B" />
  <rect x="40" y="180" width="180" height="1" fill="#64748B" />
  <rect x="40" y="200" width="180" height="1" fill="#64748B" />
  <rect x="40" y="220" width="180" height="1" fill="#64748B" />
  <rect x="40" y="240" width="180" height="1" fill="#64748B" />
  <rect x="40" y="260" width="180" height="1" fill="#64748B" />
  <rect x="40" y="280" width="180" height="1" fill="#64748B" />
  <rect x="40" y="300" width="180" height="1" fill="#64748B" />
  <rect x="40" y="320" width="180" height="1" fill="#64748B" />
  <rect x="40" y="340" width="180" height="1" fill="#64748B" />
  
  <rect x="40" y="120" width="40" height="12" rx="2" fill="#E2E8F0" />
  <rect x="100" y="120" width="40" height="12" rx="2" fill="#E2E8F0" />
  <rect x="160" y="120" width="40" height="12" rx="2" fill="#E2E8F0" />
  
  <path d="M280 320L320 260L360 280L400 220L440 240L480 170L520 200" stroke="#6A75B5" stroke-width="3" />
  <path d="M280 240L320 280L360 220L400 260L440 190L480 230L520 180" stroke="#4A6FA5" stroke-width="3" />
  
  <circle cx="320" cy="260" r="4" fill="#6A75B5" />
  <circle cx="360" cy="280" r="4" fill="#6A75B5" />
  <circle cx="400" cy="220" r="4" fill="#6A75B5" />
  <circle cx="440" cy="240" r="4" fill="#6A75B5" />
  <circle cx="480" cy="170" r="4" fill="#6A75B5" />
  <circle cx="520" cy="200" r="4" fill="#6A75B5" />
  
  <circle cx="320" cy="280" r="4" fill="#4A6FA5" />
  <circle cx="360" cy="220" r="4" fill="#4A6FA5" />
  <circle cx="400" cy="260" r="4" fill="#4A6FA5" />
  <circle cx="440" cy="190" r="4" fill="#4A6FA5" />
  <circle cx="480" cy="230" r="4" fill="#4A6FA5" />
  <circle cx="520" cy="180" r="4" fill="#4A6FA5" />
  
  <rect x="280" y="100" width="280" height="20" rx="2" fill="#4A6FA5" />
  <rect x="280" y="140" width="280" height="40" rx="2" fill="#334155" stroke="#64748B" />
</svg> 